<svg height="512" viewBox="0 0 64 64" width="512" xmlns="http://www.w3.org/2000/svg"><g id="Operator-Taxi-Customer_Service-Transportation-Call_Center" data-name="Operator-Taxi-Customer Service-Transportation-Call Center"><path d="m36 52h10v2h-10z"/><path d="m36 48h10v2h-10z"/><path d="m56 51a3 3 0 1 0 -3 3 3 3 0 0 0 3-3zm-4 0a1 1 0 1 1 1 1 1 1 0 0 1 -1-1z"/><path d="m26 51a3 3 0 1 0 3-3 3 3 0 0 0 -3 3zm4 0a1 1 0 1 1 -1-1 1 1 0 0 1 1 1z"/><path d="m61 43a3.009 3.009 0 0 0 -3-3 2.942 2.942 0 0 0 -1.62.49l-1.42-3.79-.8-3.18a2 2 0 0 0 -1.94-1.52h-3.22v-3a1 1 0 0 0 -1-1h-1v4h-1v2h6.22l.5 2h-8.73v2h9.32l2.25 6h-19.56v2h21a1 1 0 0 1 1 1v8a1 1 0 0 1 -1 1h-32a1 1 0 0 1 -1-1v-7h-2v12a2.006 2.006 0 0 0 2 2h4a2.006 2.006 0 0 0 2-2v-2h22v2a2.006 2.006 0 0 0 2 2h4a2.006 2.006 0 0 0 2-2v-13a2.942 2.942 0 0 0 -.4-1.47 2.983 2.983 0 0 0 1.4-2.53zm-33 17h-4v-2.18a3 3 0 0 0 1 .18h3zm30 0h-4v-2h3a3 3 0 0 0 1-.18zm0-16a.96.96 0 0 1 -.33-.06l-.53-1.43a.973.973 0 0 1 .86-.51 1 1 0 0 1 0 2z"/><path d="m20 20h2v2h-2z"/><path d="m26 20h2v2h-2z"/><path d="m24 2a22 22 0 1 0 22 22 22.026 22.026 0 0 0 -22-22zm0 42a19.82 19.82 0 0 1 -10.48-3h20.96a19.82 19.82 0 0 1 -10.48 3zm11-5h-22v-.1a5 5 0 0 1 2.97-4.57l4.3-1.91a3.986 3.986 0 0 0 7.46 0l4.3 1.91a5 5 0 0 1 2.97 4.57zm-19.96-22.87a9.02 9.02 0 0 1 8.96-8.13 9.011 9.011 0 0 1 8.96 8.13 3.832 3.832 0 0 0 -.96-.13c-.09 0-.17.02-.26.02a7.986 7.986 0 0 0 -15.48 0c-.09 0-.17-.02-.26-.02a3.832 3.832 0 0 0 -.96.13zm.96 1.87v4a2 2 0 0 1 0-4zm16 4v-4a2 2 0 0 1 0 4zm1 1.86v1.14h-1.59a7.14 7.14 0 0 0 .33-1.02c.09 0 .17.02.26.02a4.091 4.091 0 0 0 1-.14zm-3.09-6.86h-.5l-1.7-1.71a1 1 0 0 0 -1.16-.18l-3.79 1.89h-4.67a5.993 5.993 0 0 1 11.82 0zm-11.91 2h5a1 1 0 0 0 .45-.11l3.35-1.67 1.49 1.49a1.033 1.033 0 0 0 .71.29h1v3a5.984 5.984 0 0 1 -.81 3h-5.19v2h3.31a5.995 5.995 0 0 1 -9.31-5zm8 10.74v1.26a2 2 0 0 1 -4 0v-1.26a7.822 7.822 0 0 0 4 0zm11 9.43v-.27a7.007 7.007 0 0 0 -4.16-6.4l-4.84-2.15v-1.43a8.1 8.1 0 0 0 2.24-1.92h2.76a2.006 2.006 0 0 0 2-2v-2.38a3.932 3.932 0 0 0 0-5.24v-.38a11 11 0 1 0 -22 0v.38a3.981 3.981 0 0 0 3 6.62c.09 0 .17-.02.26-.02a7.993 7.993 0 0 0 3.74 4.94v1.43l-4.84 2.15a7.007 7.007 0 0 0 -4.16 6.4v.27a20 20 0 1 1 26 0z"/></g></svg>