<svg id="_50" height="512" viewBox="0 0 512 512" width="512" xmlns="http://www.w3.org/2000/svg" data-name="50"><circle cx="256" cy="256" fill="#15be79" r="256"/><circle cx="256" cy="256" fill="#33db92" r="203.19"/><path d="m411.78 290-137.57 137.57a25.73 25.73 0 0 1 -36.42 0l-114.16-114.15-23.4-23.42a93.6 93.6 0 1 1 132.37-132.37l23.4 23.37 23.4-23.41a93.61 93.61 0 0 1 132.38 132.41z" fill="#e52e44"/><path d="m411.78 290-111.45 111.45a25.75 25.75 0 0 1 -36.42 0l-114.16-114.16-23.4-23.41a93.63 93.63 0 0 1 -11.77-118 93.65 93.65 0 0 1 118 11.78l23.42 23.34 23.4-23.41a93.61 93.61 0 0 1 132.38 132.41z" fill="#fa4654"/><ellipse cx="375.17" cy="174.26" fill="#fb626e" rx="23.75" ry="39.26" transform="matrix(.596 -.803 .803 .596 11.74 371.84)"/><ellipse cx="412.54" cy="231.59" fill="#fb626e" rx="15" ry="24.8" transform="matrix(.989 -.147 .147 .989 -29.54 63.1)"/><path d="m443 335.73a80.88 80.88 0 1 1 -80.86-80.87 80.56 80.56 0 0 1 80.86 80.87z" fill="#decee5"/><path d="m443 335.73a80.56 80.56 0 0 1 -12.25 42.82 80.88 80.88 0 0 1 -111.44-111.44 80.88 80.88 0 0 1 123.69 68.62z" fill="#f4e6f4"/><ellipse cx="388.71" cy="291.03" fill="#fff" rx="20.9" ry="34.55" transform="matrix(.596 -.803 .803 .596 -76.59 429.95)"/><ellipse cx="421.61" cy="341.5" fill="#fff" rx="13.21" ry="21.83" transform="matrix(.989 -.147 .147 .989 -45.58 65.62)"/><path d="m404.07 332.23h-38.46v-38.46a3.5 3.5 0 0 0 -7 0v38.46h-38.45a3.49 3.49 0 0 0 -3.5 3.5 3.5 3.5 0 0 0 3.5 3.5h38.45v38.45a3.5 3.5 0 0 0 7 0v-38.45h38.46a3.5 3.5 0 0 0 3.5-3.5 3.5 3.5 0 0 0 -3.5-3.5z" fill="#14a36d"/></svg>